HIERARCHY
ROOT Hips
{
  OFFSET 265.287 66.7526 -254.649
  CHANNELS 6 Xposition Yposition Zposition Zrotation Xrotation Yrotation
  JOINT LeftUpLeg
  {
    OFFSET 8.64259 1.95398 -2.38835
    CHANNELS 3 Zrotation Xrotation Yrotation
    JOINT LeftLeg
    {
      OFFSET 43.7702 0 0
      CHANNELS 3 Zrotation Xrotation Yrotation
      JOINT LeftFoot
      {
        OFFSET 40.6238 0 0
        CHANNELS 3 Zrotation Xrotation Yrotation
        JOINT LeftToeBase
        {
          OFFSET 12.7242 0 0
          CHANNELS 3 Zrotation Xrotation Yrotation
          End Site
          {
            OFFSET 0 0 0
          }
        }
      }
    }
  }
  JOINT RightUpLeg
  {
    OFFSET -8.2249 1.95398 -2.59336
    CHANNELS 3 Zrotation Xrotation Yrotation
    JOINT RightLeg
    {
      OFFSET 43.5653 0 0
      CHANNELS 3 Zrotation Xrotation Yrotation
      JOINT RightFoot
      {
        OFFSET 40.6238 0 0
        CHANNELS 3 Zrotation Xrotation Yrotation
        JOINT RightToeBase
        {
          OFFSET 12.7242 0 0
          CHANNELS 3 Zrotation Xrotation Yrotation
          End Site
          {
            OFFSET 0 0 0
          }
        }
      }
    }
  }
  JOINT Spine
  {
    OFFSET 0.165834 0.87714 6.61349
    CHANNELS 3 Zrotation Xrotation Yrotation
    JOINT Spine1
    {
      OFFSET 7.38963 1.71661e-005 0
      CHANNELS 3 Zrotation Xrotation Yrotation
      JOINT Spine2
      {
        OFFSET 11.9445 1.14441e-005 0
        CHANNELS 3 Zrotation Xrotation Yrotation
        JOINT Spine3
        {
          OFFSET 14.7254 4.19617e-005 0
          CHANNELS 3 Zrotation Xrotation Yrotation
          JOINT Spine4
          {
            OFFSET 10.9679 0 0
            CHANNELS 3 Zrotation Xrotation Yrotation
            JOINT RightShoulder
            {
              OFFSET 2.46616 -1.6653 3.69651
              CHANNELS 3 Zrotation Xrotation Yrotation
              JOINT RightArm
              {
                OFFSET 13.0012 0 0
                CHANNELS 3 Zrotation Xrotation Yrotation
                JOINT RightForeArm
                {
                  OFFSET 28.7848 1.52588e-005 0
                  CHANNELS 3 Zrotation Xrotation Yrotation
                  JOINT RightHand
                  {
                    OFFSET 26.5688 1.52588e-005 0
                    CHANNELS 3 Zrotation Xrotation Yrotation
                    End Site
                    {
                      OFFSET 0 0 0
                    }
                  }
                }
              }
            }
            JOINT LeftShoulder
            {
              OFFSET 2.38034 -1.29275 -3.7523
              CHANNELS 3 Zrotation Xrotation Yrotation
              JOINT LeftArm
              {
                OFFSET 16.3182 6.10351e-005 0
                CHANNELS 3 Zrotation Xrotation Yrotation
                JOINT LeftForeArm
                {
                  OFFSET 27.0901 0 0
                  CHANNELS 3 Zrotation Xrotation Yrotation
                  JOINT LeftHand
                  {
                    OFFSET 24.5451 1.52588e-005 0
                    CHANNELS 3 Zrotation Xrotation Yrotation
                    End Site
                    {
                      OFFSET 0 0 0
                    }
                  }
                }
              }
            }
            JOINT Neck
            {
              OFFSET 5.0226 -0.0266342 0
              CHANNELS 3 Zrotation Xrotation Yrotation
              JOINT Head
              {
                OFFSET 6.69364 2.86102e-005 0
                CHANNELS 3 Zrotation Xrotation Yrotation
                End Site
                {
                  OFFSET 0 0 0
                }
              }
            }
          }
        }
      }
    }
  }
}
MOTION
Frames:	12
Frame Time:	0.0416667
-117.22 84.7644 -113.324 -168.321 69.6704 -27.1006 178.586 23.8272 89.7127 -49.3606 14.3018 4.58066 48.6311 -2.92831 6.35886 54.6488 -6.71165 9.7343 179.674 25.9832 87.9152 -71.2177 -21.4285 -4.14199 58.8225 2.08448 9.06599 30.7579 -0.804997 5.19662 -0.238281 9.12845 -90.5163 8.6135 -0.704072 -0.975532 -3.05751 -0.746321 -0.943608 -25.5912 -0.378344 -1.14201 -5.57858 -0.378342 -1.14201 100.698 -47.6164 -84.5207 11.8359 3.90978 -2.03655 0.356667 -23.6625 -4.58143 -10.6771 -0.533026 0.699051 -83.761 -51.4713 88.0439 1.32803 5.83707 -7.65473 17.3008 3.56444 -51.2772 19.1405 0.265738 -2.54759 -0.854599 -3.0349 -1.99556 -3.66898 -2.67259 3.88998 
-126.494 85.8127 -121.979 119.103 68.9185 47.6315 179.929 21.3749 98.3949 -24.1998 17.2654 6.44964 34.1139 -5.60858 -11.0768 59.0287 -6.8081 14.9458 -174.897 27.2312 83.2526 -73.3827 -20.5965 -7.10673 75.7935 -2.45508 21.3453 16.6615 0.827368 4.29394 0.938235 9.01608 -90.7339 8.85033 1.54522 -1.55648 -2.82072 1.47523 -1.62297 -25.3595 1.94153 -1.02009 -5.34684 1.94153 -1.02009 98.7773 -43.4164 -87.9078 11.3578 -2.61509 -19.8282 -1.49038 -16.1464 -17.8443 -11.9283 -0.355847 -1.7746 -82.6209 -52.6944 89.8446 -1.29224 10.5838 2.91383 11.3704 6.5918 -37.6138 12.3375 0.0306596 -3.431 -4.64511 -12.0773 3.71905 3.4543 -13.0911 -12.4752 
-136.133 84.663 -130.583 89.1456 45.385 79.2602 -176.842 16.1366 105.862 -19.3371 25.2853 9.89559 37.1005 -4.76493 -11.0897 58.8977 -6.65973 15.348 -177.703 38.9721 77.6425 -74.6499 -20.6222 -5.19205 79.2185 -3.4053 23.749 25.4002 0.341271 1.74986 2.08237 9.31453 -90.9411 8.27932 3.74201 -2.08803 -3.38803 3.64652 -2.25083 -25.9644 4.19633 -0.865262 -5.9518 4.19633 -0.865268 97.5211 -38.4545 -90.5783 8.41546 -9.19025 -44.7488 -4.6657 -19.2279 -28.8697 -12.5405 -0.172054 -3.83353 -83.3166 -51.9995 88.7498 -15.4968 6.38172 10.9957 4.2235 1.23884 -21.9049 15.443 -0.022769 -4.01468 -2.79522 -19.8846 3.72977 5.94847 -21.9039 -24.4566 
-146.852 82.4173 -136.971 83.6513 35.2154 85.1462 -178.267 25.7344 105.398 -40.7671 20.7945 8.49059 60.9816 2.55631 0.0976342 64.1857 -7.07659 17.8094 164.683 53.1844 81.2315 -75.3575 -11.8573 0.948656 71.8083 -4.01867 13.1876 40.6041 -1.80174 6.01122 1.48616 10.1367 -91.0381 6.61775 2.52634 -2.13576 -5.05283 2.42991 -2.24487 -27.6001 3.05125 -1.27755 -7.58746 3.05124 -1.27756 96.8766 -37.5406 -91.8662 13.5985 -14.3185 -61.4569 -8.60063 -12.8557 -43.03 -11.4815 0.10252 -6.33096 -86.0847 -48.0118 84.0829 -26.5628 5.50296 -1.70023 2.05208 2.23853 -4.01074 14.0196 0.216697 -2.474 -0.0766951 -22.2895 -5.60918 10.5886 -23.6216 -21.891 
-153.941 81.8417 -140.274 76.1479 35.5946 86.4945 -179.26 37.1517 99.0611 -47.717 22.2841 4.83122 65.0001 5.6524 10.2643 59.8356 -6.8809 15.3591 149.874 62.7865 88.6429 -75.0609 -7.94163 4.25985 69.5851 -3.83245 8.73402 39.0888 -1.58914 5.01106 0.70159 10.9168 -90.7163 5.04445 1.10667 -1.42688 -6.62687 1.04283 -1.47418 -29.1621 1.48433 -1.02832 -9.14947 1.48434 -1.02832 97.0447 -40.3083 -91.2133 13.0615 -19.5081 -65.7035 -15.3554 -14.4182 -53.1596 -12.2003 0.0457926 -5.70448 -91.5827 -46.5231 75.2734 -13.6054 4.41025 -29.3345 0.927869 9.9755 0.23904 11.0544 -0.0814997 -4.21758 4.96183 -22.9059 -10.6346 12.9608 -23.0114 -18.6357 
-156.974 81.4792 -141.9 72.9329 32.73 86.3938 -176.455 41.6456 96.0462 -50.3683 23.0533 2.43818 65.6661 6.31925 13.3292 59.6438 -7.2359 13.0657 140.777 65.2544 98.5555 -79.6508 -8.54102 4.02048 66.7587 -3.64835 4.75488 49.1923 -2.73064 3.15294 0.528363 11.7526 -90.3605 3.37065 0.912424 -0.700783 -8.30018 0.880687 -0.74027 -30.8373 1.08084 -0.394154 -10.8247 1.08084 -0.394151 97.2863 -45.3863 -90.2225 14.6443 -21.5668 -64.8724 -6.41908 -16.3735 -39.3059 -15.1172 -0.538296 -1.0757 -92.6749 -41.1512 72.0076 -8.73371 -4.96152 -56.6165 4.69636 12.8605 0.00722727 17.5155 0.199248 -2.71714 2.2222 -21.8197 -14.7094 21.2527 -22.0154 -14.7977 
-156.984 80.9922 -143.358 71.2502 33.1147 85.2914 -173.898 42.9518 93.247 -51.1531 24.9406 0.704725 67.3652 7.04048 14.049 58.3229 -7.28006 11.2129 134.281 66.122 102.425 -85.5105 -10.3838 2.95032 66.5 -4.27561 2.97511 53.3095 -3.12321 4.00312 0.0591738 12.1234 -90.3093 2.62635 -0.00293931 -0.603621 -9.04476 -0.0294854 -0.602912 -31.5786 0.178601 -0.57661 -11.5659 0.178605 -0.576601 96.9126 -49.3644 -90.415 19.3027 -23.0488 -55.2358 1.29023 -11.3567 -34.8999 -29.4362 -3.01113 6.8204 -92.0579 -38.7196 72.273 -6.91286 -2.30602 -75.2381 5.31259 15.4568 -6.20151 12.6729 -0.198951 -5.20621 3.05005 -21.2055 -13.4927 23.5867 -21.8553 -15.264 
-153.914 81.4527 -143.84 69.9457 31.5462 82.7526 -170.18 38.9214 91.0989 -45.9632 24.4236 -1.37845 68.2319 6.8605 11.9784 57.8238 -7.34835 10.2862 134.565 66.3206 100.549 -85.3566 -12.2721 3.05694 66.3657 -3.65619 4.7743 53.9646 -3.28304 3.318 -0.713959 11.995 -90.0085 2.88348 -1.42917 -0.0329801 -8.78668 -1.42924 0.0299548 -31.3275 -1.35315 -0.461038 -11.3148 -1.35316 -0.461049 97.8949 -51.9566 -88.6644 22.0519 -29.3195 -45.0525 4.06019 -4.58106 -41.4592 -27.1778 -2.8607 7.0799 -91.7882 -35.6821 71.7751 -7.40431 5.50529 -80.3935 17.34 16.7744 -37.6843 10.0807 -0.36781 -6.73897 6.9821 -20.3283 -11.3305 21.9967 -20.8272 -15.5444 
-145.921 82.6724 -142.88 68.31 22.0703 79.4498 -171.559 26.8842 93.6619 -34.1201 19.616 0.300222 63.4211 3.11699 4.13363 65.8637 -7.60057 16.4705 141.221 59.5047 96.8632 -76.2238 -19.0876 6.12309 62.895 -2.20587 0.740081 57.4486 -2.91572 8.46187 -0.875592 11.2424 -89.7965 4.39131 -1.6668 0.413699 -7.27866 -1.64697 0.486673 -29.8225 -1.71406 -0.106512 -9.80983 -1.71404 -0.106501 97.248 -53.2419 -89.5296 17.3106 -39.9345 -39.3016 29.6361 17.8761 -54.3853 -42.9193 -5.21469 8.14392 -92.1615 -39.8005 72.4388 -6.41325 13.4571 -71.9363 23.5105 18.4488 -46.5963 14.1032 0.0164719 -3.66923 11.8559 -18.3854 -2.85853 16.2055 -19.8541 -16.7049 
-134.881 82.9596 -138.922 68.006 9.29393 75.7728 -175.318 24.726 95.5967 -47.0705 14.1377 2.68341 46.0854 -3.56011 1.45498 62.0417 -7.36682 14.7632 156.69 47.5584 90.5924 -70.4072 -16.3948 5.71982 68.3357 -3.03051 7.26276 52.9619 -2.38984 10.9597 -0.542041 10.5434 -89.7009 5.7892 -0.957647 0.613858 -5.88157 -0.929733 0.655408 -28.4192 -1.09788 0.297642 -8.40654 -1.09787 0.297629 97.2241 -54.0732 -89.4931 15.9188 -40.7685 -36.5493 65.0926 32.9765 -77.6076 -32.4891 -3.03837 5.42849 -91.5001 -48.9278 75.9911 -12.0887 11.0653 -45.2591 15.6759 24.3202 -28.5822 21.5059 0.588971 -1.15715 12.9747 -15.9165 -1.57589 16.1863 -16.723 -10.3993 
-123.608 82.4361 -134.874 69.756 -3.70525 73.3281 -177.777 37.4946 90.7089 -81.6536 16.5984 1.42191 58.0272 2.29851 13.1244 55.5281 -7.15274 7.99269 169.077 32.1654 88.8489 -64.2826 -17.2115 2.46484 70.0316 -3.57743 6.26647 55.8384 -2.56638 10.5385 0.396835 10.4692 -89.6497 5.93047 0.939831 0.658931 -5.74027 0.967918 0.616928 -28.2757 0.698362 0.910913 -8.26308 0.698363 0.910919 98.1296 -50.0748 -88.4395 24.8009 -19.2192 -38.3499 45.9598 21.9405 -72.8429 -41.4067 -2.84683 2.33004 -89.6229 -52.2817 79.5246 -12.1068 5.43344 -13.4297 6.35101 20.8145 -11.1102 17.1776 0.733055 0.349291 15.1577 -14.4079 3.02765 13.5368 -16.189 -10.3822 
-111.134 84.4035 -127.807 67.9917 -7.67223 66.5573 -166.611 55.8416 74.1969 -77.5592 16.3909 -1.83167 65.454 5.30088 12.6088 56.4364 -7.61243 6.43726 174.436 14.0951 83.0397 -41.7411 -16.6196 -1.20946 66.0678 -1.07415 8.12476 52.849 -2.68212 11.8348 0.973887 10.0496 -89.1933 6.77179 2.29007 1.502 -4.89772 2.35398 1.39973 -27.4378 1.73284 2.12078 -7.42519 1.73283 2.12078 100.251 -43.8164 -85.3967 27.9601 4.23046 -40.6665 7.59546 0.00860944 -77.1034 -36.077 -1.66125 0.196921 -89.8127 -46.6998 78.0258 -17.5796 9.37177 13.0871 4.10618 15.8073 -12.083 18.7919 0.809219 0.398851 13.9777 -16.3985 7.54971 13.418 -19.5225 -12.6144 
